<?xml version="1.0" encoding="utf-8"?>
<!-- Generator: Adobe Illustrator 19.2.0, SVG Export Plug-In . SVG Version: 6.00 Build 0)  -->
<svg version="1.0" id="Layer_1" xmlns="http://www.w3.org/2000/svg" xmlns:xlink="http://www.w3.org/1999/xlink" x="0px" y="0px"
	 width="102.5px" height="14.2px" viewBox="0 0 102.5 14.2" style="enable-background:new 0 0 102.5 14.2;" xml:space="preserve">
<style type="text/css">
	.st0{fill:none;stroke:#000000;stroke-width:3;stroke-miterlimit:10;}
</style>
<line class="st0" x1="-202.5" y1="14" x2="-188.9" y2="0.2"/>
<line class="st0" x1="-176.7" y1="13.3" x2="-191" y2="0.2"/>
<line class="st0" x1="-178.6" y1="14" x2="-165" y2="0.2"/>
<line class="st0" x1="-152.7" y1="13.3" x2="-167" y2="0.2"/>
<line class="st0" x1="-154.4" y1="14" x2="-140.9" y2="0.2"/>
<line class="st0" x1="-128.5" y1="13.3" x2="-142.8" y2="0.2"/>
<line class="st0" x1="-130.4" y1="14" x2="-116.8" y2="0.2"/>
<line class="st0" x1="-104.5" y1="13.3" x2="-118.8" y2="0.2"/>
<g>
	<polyline class="st0" points="-213,72 -203.1,82 -193.2,72 -183.3,82 -173.4,72 -163.5,82 -153.7,72 -143.8,82 -133.9,72 -124,82 
		-114.1,72 -104.2,82 	"/>
</g>
<polygon points="61.3,14.2 51.3,4.2 41.2,14.2 31.2,4.2 21.1,14.2 11.1,4.2 2.1,13.2 0,11.1 11.1,0 21.1,10 31.2,0 41.2,10 51.3,0 
	61.3,10 71.3,0 81.4,10 91.4,0 102.5,11.1 100.4,13.2 91.4,4.2 81.4,14.2 71.3,4.2 "/>
</svg>
