<?xml version="1.0" standalone="no"?>
<!DOCTYPE svg PUBLIC "-//W3C//DTD SVG 20010904//EN"
 "http://www.w3.org/TR/2001/REC-SVG-20010904/DTD/svg10.dtd">
<svg version="1.0" xmlns="http://www.w3.org/2000/svg"
 width="700.000000pt" height="700.000000pt" viewBox="0 0 700.000000 700.000000"
 preserveAspectRatio="xMidYMid meet">
<metadata>
Created by potrace 1.11, written by Peter Selinger 2001-2013
</metadata>
<g transform="translate(0.000000,700.000000) scale(0.100000,-0.100000)"
fill="#000000" stroke="none">
<path d="M2048 5543 c-94 -92 -594 -590 -1110 -1105 l-939 -937 1112 -1112
1111 -1111 379 378 379 379 -732 732 -733 733 733 733 733 733 -328 324 c-181
179 -352 347 -381 373 l-52 48 -172 -168z"/>
<path d="M4749 5683 c-19 -15 -191 -183 -382 -373 l-348 -344 733 -733 733
-733 -733 -733 -732 -732 379 -379 379 -378 1111 1111 1111 1111 -962 961
c-530 528 -1029 1025 -1109 1105 l-146 145 -34 -28z"/>
</g>
</svg>
