<?xml version="1.0" encoding="UTF-8"?><!DOCTYPE svg PUBLIC "-//W3C//DTD SVG 1.1//EN" "http://www.w3.org/Graphics/SVG/1.1/DTD/svg11.dtd"><svg xmlns="http://www.w3.org/2000/svg"><symbol id="icon--arrow" viewBox="0 0 16 16"><path d="M15.375 7L10 2.54C9.695 2.287 9.461 2 9 2c-.625 0-1 .516-1 1v3H1c-.55 0-1 .45-1 1v2c0 .55.45 1 1 1h7v3c0 .484.375 1 1 1 .461 0 .695-.287 1-.54L15.375 9c.383-.312.625-.555.625-1s-.242-.687-.625-1z"/></symbol><symbol id="icon--email" viewBox="0 0 512 512"><path d="M67 148.7c11 5.8 163.8 89.1 169.5 92.1 5.7 3 11.5 4.4 20.5 4.4s14.8-1.4 20.5-4.4c5.7-3 158.5-86.3 169.5-92.1 4.1-2.1 11-5.9 12.5-10.2 2.6-7.6-.2-10.5-11.3-10.5H65.8c-11.1 0-13.9 3-11.3 10.5 1.5 4.4 8.4 8.1 12.5 10.2z"/><path d="M455.7 153.2c-8.2 4.2-81.8 56.6-130.5 88.1l82.2 92.5c2 2 2.9 4.4 1.8 5.6-1.2 1.1-3.8.5-5.9-1.4l-98.6-83.2c-14.9 9.6-25.4 16.2-27.2 17.2-7.7 3.9-13.1 4.4-20.5 4.4s-12.8-.5-20.5-4.4c-1.9-1-12.3-7.6-27.2-17.2L110.7 338c-2 2-4.7 2.6-5.9 1.4-1.2-1.1-.3-3.6 1.7-5.6l82.1-92.5c-48.7-31.5-123.1-83.9-131.3-88.1-8.8-4.5-9.3.8-9.3 4.9v205c0 9.3 13.7 20.9 23.5 20.9h371c9.8 0 21.5-11.7 21.5-20.9v-205c0-4.2.6-9.4-8.3-4.9z"/></symbol><symbol id="icon--github" viewBox="0 0 60 60"><title/><path d="M25.425 47.517c0-.45-.016-1.64-.025-3.22-5.135 1.143-6.218-2.538-6.218-2.538-.84-2.187-2.05-2.77-2.05-2.77-1.677-1.174.126-1.15.126-1.15 1.853.134 2.828 1.951 2.828 1.951 1.647 2.893 4.32 2.058 5.373 1.574.168-1.224.645-2.058 1.172-2.531-4.1-.478-8.41-2.102-8.41-9.356 0-2.066.72-3.756 1.901-5.08-.189-.478-.824-2.402.182-5.009 0 0 1.55-.509 5.076 1.94a17.275 17.275 0 0 1 4.623-.637c1.567.007 3.146.218 4.622.638 3.523-2.45 5.071-1.94 5.071-1.94 1.008 2.604.374 4.529.184 5.009 1.183 1.323 1.897 3.013 1.897 5.08 0 7.271-4.317 8.871-8.43 9.34.664.584 1.254 1.74 1.254 3.506 0 2.53-.024 4.572-.024 5.193 0 .507.333 1.095 1.27.91 7.33-2.508 12.615-9.599 12.615-17.959 0-10.455-8.267-18.93-18.463-18.93-10.194 0-18.46 8.475-18.46 18.93 0 8.363 5.29 15.458 12.626 17.961.923.173 1.26-.411 1.26-.912z" fill-rule="evenodd"/></symbol><symbol id="icon--linkedin" viewBox="0 0 60 60"><title/><path d="M21.883 43.823V25.524h-5.656v18.3h5.656zm0-24.785c-.034-1.637-1.125-2.884-2.898-2.884-1.773 0-2.932 1.247-2.932 2.884 0 1.602 1.125 2.885 2.864 2.885h.034c1.807 0 2.932-1.283 2.932-2.885zm9.227 24.785V33.397c0-.558.04-1.116.204-1.513.449-1.116 1.47-2.27 3.184-2.27 2.246 0 3.654 1.274 3.654 3.783v10.426h5.694V33.118c0-5.734-3.061-8.402-7.144-8.402-3.348 0-4.817 1.871-5.633 3.145l.04-2.447h-5.684c.082 1.752 0 18.41 0 18.41h5.685z" fill-rule="evenodd"/></symbol></svg>