<?xml version="1.0" encoding="UTF-8"?><!DOCTYPE svg PUBLIC "-//W3C//DTD SVG 1.1//EN" "http://www.w3.org/Graphics/SVG/1.1/DTD/svg11.dtd"><svg xmlns="http://www.w3.org/2000/svg"><symbol id="1492813632_user" viewBox="0 0 1792 1792"><path d="M1600 1405q0 120-73 189.5t-194 69.5H459q-121 0-194-69.5T192 1405q0-53 3.5-103.5t14-109T236 1084t43-97.5 62-81 85.5-53.5T538 832q9 0 42 21.5t74.5 48 108 48T896 971t133.5-21.5 108-48 74.5-48 42-21.5q61 0 111.5 20t85.5 53.5 62 81 43 97.5 26.5 108.5 14 109 3.5 103.5zm-320-893q0 159-112.5 271.5T896 896 624.5 783.5 512 512t112.5-271.5T896 128t271.5 112.5T1280 512z"/></symbol><symbol id="divider" viewBox="0 0 102.5 14.2"><style>.st0{fill:none;stroke:#000;stroke-width:3;stroke-miterlimit:10}</style><path class="st0" d="M-202.5 14L-188.9.2m12.2 13.1L-191 .2m12.4 13.8L-165 .2m12.3 13.1L-167 .2m12.6 13.8L-140.9.2m12.4 13.1L-142.8.2m12.4 13.8L-116.8.2m12.3 13.1L-118.8.2M-213 72l9.9 10 9.9-10 9.9 10 9.9-10 9.9 10 9.8-10 9.9 10 9.9-10 9.9 10 9.9-10 9.9 10"/><path d="M61.3 14.2l-10-10-10.1 10-10-10-10.1 10-10-10-9 9L0 11.1 11.1 0l10 10L31.2 0l10 10L51.3 0l10 10 10-10 10.1 10 10-10 11.1 11.1-2.1 2.1-9-9-10 10-10.1-10z"/></symbol><symbol id="icon-arrow-left"><title>background</title><path d="M-1-1h582v402H-1z"/><title>Layer 1</title><path d="M.625 9L6 13.46c.305.253.539.54 1 .54.625 0 1-.516 1-1v-3h7c.55 0 1-.45 1-1V7c0-.55-.45-1-1-1H8V3c0-.484-.375-1-1-1-.461 0-.695.287-1 .54L.625 7C.242 7.312 0 7.555 0 8s.242.687.625 1z"/></symbol><symbol id="icon-arrow" viewBox="0 0 16 16"><path d="M15.375 7L10 2.54C9.695 2.287 9.461 2 9 2c-.625 0-1 .516-1 1v3H1c-.55 0-1 .45-1 1v2c0 .55.45 1 1 1h7v3c0 .484.375 1 1 1 .461 0 .695-.287 1-.54L15.375 9c.383-.312.625-.555.625-1s-.242-.687-.625-1z"/></symbol><symbol id="icon-email" viewBox="0 0 512 512"><path d="M67 148.7c11 5.8 163.8 89.1 169.5 92.1 5.7 3 11.5 4.4 20.5 4.4s14.8-1.4 20.5-4.4c5.7-3 158.5-86.3 169.5-92.1 4.1-2.1 11-5.9 12.5-10.2 2.6-7.6-.2-10.5-11.3-10.5H65.8c-11.1 0-13.9 3-11.3 10.5 1.5 4.4 8.4 8.1 12.5 10.2z"/><path d="M455.7 153.2c-8.2 4.2-81.8 56.6-130.5 88.1l82.2 92.5c2 2 2.9 4.4 1.8 5.6-1.2 1.1-3.8.5-5.9-1.4l-98.6-83.2c-14.9 9.6-25.4 16.2-27.2 17.2-7.7 3.9-13.1 4.4-20.5 4.4s-12.8-.5-20.5-4.4c-1.9-1-12.3-7.6-27.2-17.2L110.7 338c-2 2-4.7 2.6-5.9 1.4-1.2-1.1-.3-3.6 1.7-5.6l82.1-92.5c-48.7-31.5-123.1-83.9-131.3-88.1-8.8-4.5-9.3.8-9.3 4.9v205c0 9.3 13.7 20.9 23.5 20.9h371c9.8 0 21.5-11.7 21.5-20.9v-205c0-4.2.6-9.4-8.3-4.9z"/></symbol><symbol id="icon-github" viewBox="0 0 60 60"><title/><path d="M25.425 47.517c0-.45-.016-1.64-.025-3.22-5.135 1.143-6.218-2.538-6.218-2.538-.84-2.187-2.05-2.77-2.05-2.77-1.677-1.174.126-1.15.126-1.15 1.853.134 2.828 1.951 2.828 1.951 1.647 2.893 4.32 2.058 5.373 1.574.168-1.224.645-2.058 1.172-2.531-4.1-.478-8.41-2.102-8.41-9.356 0-2.066.72-3.756 1.901-5.08-.189-.478-.824-2.402.182-5.009 0 0 1.55-.509 5.076 1.94a17.275 17.275 0 0 1 4.623-.637c1.567.007 3.146.218 4.622.638 3.523-2.45 5.071-1.94 5.071-1.94 1.008 2.604.374 4.529.184 5.009 1.183 1.323 1.897 3.013 1.897 5.08 0 7.271-4.317 8.871-8.43 9.34.664.584 1.254 1.74 1.254 3.506 0 2.53-.024 4.572-.024 5.193 0 .507.333 1.095 1.27.91 7.33-2.508 12.615-9.599 12.615-17.959 0-10.455-8.267-18.93-18.463-18.93-10.194 0-18.46 8.475-18.46 18.93 0 8.363 5.29 15.458 12.626 17.961.923.173 1.26-.411 1.26-.912z" fill-rule="evenodd"/></symbol><symbol id="icon-globe" viewBox="0 0 32 32"><path d="M13.179 6.288v.027l.016-.02z"/><path d="M15.624 1.028c-7.811 0-14.167 6.355-14.167 14.167 0 7.812 6.356 14.167 14.167 14.167 7.812 0 14.168-6.354 14.168-14.167 0-7.812-6.356-14.167-14.168-14.167zm12.943 14.167c0 .248-.022.49-.037.735-.091-.23-.229-.53-.262-.659-.048-.196-.341-.879-.341-.879s-.293-.39-.488-.488c-.194-.098-.341-.342-.683-.536-.342-.196-.487-.293-.779-.293-.294 0-.585-.391-.928-.586-.342-.194-.39-.097-.39-.097s.39.585.39.731c0 .146.438.39.879.292 0 0 .292.537.438.683.146.146-.049.293-.341.488-.293.194-.244.146-.392.292-.146.146-.633.392-.78.488-.146.097-.731.39-1.023.097-.143-.141-.099-.438-.195-.634-.098-.195-1.122-1.707-1.61-2.389-.085-.12-.293-.49-.438-.585-.146-.099.342-.099.342-.099s0-.342-.049-.585c-.05-.244.049-.585.049-.585s-.488.292-.636.39c-.145.098-.292-.194-.486-.439-.195-.243-.391-.537-.439-.781-.049-.243.244-.341.244-.341l.438-.243s.537-.097.879-.049c.341.049.877.098.877.098s.146-.342-.049-.488c-.194-.146-.635-.39-.83-.341-.194.048.097-.244.34-.439l-.54-.098s-.491.244-.638.293c-.146.048-.4.146-.596.39-.194.244.078.585-.117.683a3.045 3.045 0 0 1-.473.194c-.146.049-.61 0-.61 0-.504 0-.181.46-.05.623l-.39-.476-.289-.682s-.416-.292-.611-.389a31.894 31.894 0 0 1-.796-.439l.042.439.565.572.05.013.294.39-.649.049v-.386c-.612-.148-.452-.3-.521-.347-.145-.097-.484-.342-.484-.342s-.574.098-.721.147c-.147.049-.188.195-.479.292-.294.098-.426.244-.523.39s-.415.585-.608.78c-.196.196-.558.146-.704.146-.147 0-.851-.195-.851-.195v-.827s.095-.464.047-.61l.427-.072.713-.147.209-.147.3-.39s-.337-.244-.094-.585c.117-.164.538-.195.733-.341.194-.146.489-.244.489-.244s.342-.292.683-.634c0 0 .244-.147.536-.245 0 0 .83.732.977.732s.683-.341.683-.341.146-.438.098-.585c-.049-.146-.293-.634-.293-.634s-.146.244-.292.439-.244.439-.244.439-.683-.047-.731-.193c-.05-.147-.146-.388-.196-.533-.047-.147-.438-.142-.729-.044-.294.098.047-.526.047-.526s.294-.368.488-.368.635-.25.828-.298c.196-.049.783-.272 1.025-.272.244 0 .537.105.684.105h.731l1.023-.082s.879.325.585.521c0 0 .343.211.489.357.137.138.491-.127.694-.24 3.649 2.29 6.089 6.341 6.089 10.96zM5.296 7.563c0 .195-.266.242 0 .732.34.634.048.927.048.927s-.83.585-.976.683c-.146.098-.536.634-.293.487.244-.146.536-.292.293.098-.244.391-.683 1.024-.78 1.269s-.585.829-.585 1.122c0 .293-.195.879-.146 1.123.033.17-.075.671-.16.877A12.84 12.84 0 0 1 5.21 7.545c.05.005.086.018.086.018zm1.567-1.87a12.965 12.965 0 0 1 4.133-2.573c-.152.195-.336.395-.336.395s-.341-.001-.976.683c-.633.683-.487.488-.633.682s-.098.244-.44.489c-.34.243-.487.536-.487.536l-.537.195-.438-.195s-.392.147-.343-.049c.014-.052.035-.106.057-.163zm5.846 1.138l-.194-.292.194-.439.47.188v-.871l.449-.243.373.536.574.635-.381.292-1.016.195v-.517l-.469.516zm6.342 4.585c.114-.09.487.146.487.146s1.219.244 1.414.39c.196.147.537.245.635.392.098.146.438.585.486.731.05.146.294.684.343.878.049.195.195.683.341.927.146.245.976 1.317 1.268 1.805l.88-.146s-.099.438-.196.585c-.097.146-.39.536-.536.731-.147.195-.341.488-.634.731-.292.243-.294.487-.439.683-.146.195-.342.634-.342.634s.098.976.146 1.171-.341.731-.341.731l-.44.44-.588.779.048.731s-.444.343-.689.537c-.242.194-.204.341-.399.537-.194.194-.957.536-1.152.585s-1.271.195-1.271.195v-.438l-.022-.488s-.148-.585-.295-.78-.083-.489-.327-.732c-.244-.244-.334-.438-.383-.586-.049-.146.053-.584.053-.584s.197-.537.294-.732c.098-.195.001-.487-.097-.683s-.145-.684-.145-.829c0-.146-.392-.391-.538-.537-.146-.146-.097-.342-.097-.535 0-.197-.146-.635-.098-.977.049-.341-.438-.098-.731 0s-.487-.098-.487-.391-.536-.048-.878.146c-.343.195-.732.195-1.124.342-.389.146-.583-.146-.583-.146s-.343-.292-.585-.439c-.245-.146-.489-.438-.685-.682-.194-.245-.683-.977-.73-1.268-.049-.294 0-.49 0-.831s0-.536.048-.78c.049-.244.195-.537.342-.781.146-.244.683-.536.828-.634.146-.097.488-.389.488-.585 0-.195.196-.292.292-.488.099-.195.44-.682.879-.487 0 0 .389-.048.535-.097s.536-.194.729-.292c.195-.098.681-.144.681-.144s.384.153.53.153.622-.085.622-.085.22.707.22.854.146.292.391.39c.241.099 1.364.344 1.852-.047zm5.609 9.561c0 .146-.049.537-.098.732-.051.195-.147.537-.195.73-.049.196-.293.586-.438.684-.146.098-.391.391-.536.439-.146.049-.245-.342-.196-.537.05-.195.293-.731.293-.731s.049-.292.097-.488c.05-.194.635-.438.635-.438l.391-.732c-.002-.001.047.196.047.341zM3.015 18.071c.063.016.153.062.28.175.184.16.293.242.537.341.243.099.341.243.634.39.293.147.196.05.585.488.391.438.342.438.439.683s.244.487.342.635c.098.146.39.243.536.341s.39.195.536.195c.147 0 .586.439.83.487.244.05.244.538.244.538l-.244.682-.196.731.196.585s-.294.245-.487.245c-.18 0-.241.114-.438.06a12.931 12.931 0 0 1-3.794-6.576z"/></symbol><symbol id="icon-linkedin" viewBox="0 0 512 512"><path d="M417.2 64H96.8C79.3 64 64 76.6 64 93.9V415c0 17.4 15.3 32.9 32.8 32.9h320.3c17.6 0 30.8-15.6 30.8-32.9V93.9C448 76.6 434.7 64 417.2 64zM183 384h-55V213h55v171zm-25.6-197h-.4c-17.6 0-29-13.1-29-29.5 0-16.7 11.7-29.5 29.7-29.5s29 12.7 29.4 29.5c0 16.4-11.4 29.5-29.7 29.5zM384 384h-55v-93.5c0-22.4-8-37.7-27.9-37.7-15.2 0-24.2 10.3-28.2 20.3-1.5 3.6-1.9 8.5-1.9 13.5V384h-55V213h55v23.8c8-11.4 20.5-27.8 49.6-27.8 36.1 0 63.4 23.8 63.4 75.1V384z"/></symbol><symbol id="icon-tag" viewBox="0 0 32 32"><path d="M0 18L16 2l13 1 1 13-16 16zm20-9a3 3 0 0 0 6 0 3 3 0 0 0-6 0"/></symbol></svg>